<?xml version="1.0" encoding="utf-8"?>
<!-- Generator: Adobe Illustrator 26.3.1, SVG Export Plug-In . SVG Version: 6.00 Build 0)  -->
<svg version="1.1" id="图层_1" xmlns="http://www.w3.org/2000/svg" xmlns:xlink="http://www.w3.org/1999/xlink" x="0px" y="0px"
	 viewBox="0 0 1024 1024" style="enable-background:new 0 0 1024 1024;" xml:space="preserve">
<g>
	<g>
		<path style="fill:#FFFFFF;" d="M24.515,632.955l38.961,100.01l40.696-107.275l38.961,107.275l41.38-100.01h24.515l-66.862,159.123
			l-38.478-106.016L63.568,792.17L0,632.955H24.515z"/>
		<path style="fill:#FFFFFF;" d="M314.781,654.183h-59.989v35.95h58.246v21.22h-58.246v50.005h59.989v21.22h-82.569V632.955h82.569
			V654.183z"/>
		<path style="fill:#FFFFFF;" d="M371.588,632.955v128.403h43.999v21.22h-66.579V632.955H371.588z"/>
		<path style="fill:#FFFFFF;" d="M464.162,632.955v128.403h43.999v21.22h-66.579V632.955H464.162z"/>
		<path style="fill:#FFFFFF;" d="M556.727,632.955v149.623h-22.579V632.955H556.727z"/>
		<path style="fill:#FFFFFF;" d="M597.261,782.578V622.787l109.118,114.148v-103.98h22.579v158.731L619.84,677.821v104.756H597.261z
			"/>
		<path style="fill:#FFFFFF;" d="M844.112,654.183h-52.14v35.95h50.297v21.22h-50.297v71.225h-22.579V632.955h74.72V654.183z"/>
		<path style="fill:#FFFFFF;" d="M867.596,707.09c0-21.061,7.716-39.153,23.155-54.267c15.381-15.114,33.857-22.671,55.435-22.671
			c21.32,0,39.604,7.624,54.851,22.863c15.306,15.248,22.963,33.565,22.963,54.943c0,21.52-7.69,39.77-23.063,54.751
			c-15.439,15.056-34.082,22.579-55.91,22.579c-19.318,0-36.668-6.681-52.04-20.06C876.054,750.439,867.596,731.054,867.596,707.09z
			 M890.367,707.382c0,16.54,5.555,30.136,16.666,40.796c11.052,10.66,23.806,15.99,38.277,15.99
			c15.698,0,28.944-5.43,39.737-16.282c10.785-10.985,16.182-24.356,16.182-40.121c0-15.957-5.33-29.327-15.99-40.112
			c-10.593-10.86-23.714-16.282-39.345-16.282c-15.573,0-28.718,5.422-39.437,16.282
			C895.73,678.372,890.367,691.618,890.367,707.382z"/>
	</g>
	<g>
		<g>
			<rect x="150.059" y="905.196" style="fill:#FFFFFF;" width="54.953" height="10.176"/>
			<path style="fill:#FFFFFF;" d="M204.781,979.053l-0.001-0.001l0.002-47.677h-34.489v-8.027h-12.235v8.027h-7.999v10.176h7.999
				v37.503l0,0l0,0v0.183h0.158l15.075,17.392l-20.173,23.205h16.314l11.987-13.829l11.985,13.829h16.316l-20.175-23.205
				L204.781,979.053z M170.291,974.48l0.001-32.929h22.255l-0.001,32.93l-11.126,12.798L170.291,974.48z"/>
			<path style="fill:#FFFFFF;" d="M242.415,1013.118l-5.149-50.021h20.707c4.101,0,7.425-3.325,7.425-7.426v-40.299h-12.233
				l-0.001,37.548h-16.947l-5.915-57.459h26.865c4.545,0,8.23-3.685,8.23-8.231v-14.245l-12.234,0l0.001,12.299h-23.911
				l-1.258-12.221h-12.234l1.258,12.221h-86.745l-0.001,138.009h4.003c4.546,0,8.231-3.685,8.231-8.231V895.46h75.558
				l12.103,117.567c0.601,5.832,5.515,10.266,11.378,10.266H265.4v-10.176H242.415z"/>
		</g>
		<g>
			<polygon style="fill:#FFFFFF;" points="329.68,1004.185 341.915,1004.185 358.064,923.773 345.83,923.773 			"/>
			<polygon style="fill:#FFFFFF;" points="443.286,923.773 459.435,1004.185 471.67,1004.185 455.52,923.773 			"/>
			<path style="fill:#FFFFFF;" d="M407.347,885.284l-55.729,0l4.162-12.301l-12.234,0l-14.629,43.234h12.235l7.023-20.757h46.937
				v117.657h-28.559v10.176h28.559h1.532h2.471c4.546,0,8.231-3.685,8.231-8.231V895.46h52.09v18.218h12.233v-28.394
				L407.347,885.284z"/>
		</g>
		<g>
			<rect x="586.434" y="937.191" style="fill:#FFFFFF;" width="93.905" height="10.176"/>
			<rect x="586.434" y="910.961" style="fill:#FFFFFF;" width="93.905" height="10.176"/>
			<polygon style="fill:#FFFFFF;" points="639.504,885.284 639.503,872.985 627.269,872.985 627.269,885.284 581.041,885.284 
				581.041,895.46 685.733,895.46 685.733,885.284 			"/>
			<path style="fill:#FFFFFF;" d="M585.897,1023.293h86.748c4.546,0,8.231-3.685,8.231-8.23v-51.432h-94.979V1023.293z
				 M668.642,1013.117H598.13v-39.31h70.513L668.642,1013.117z"/>
			<path style="fill:#FFFFFF;" d="M562.591,873.128l-27.402,74.316l13.268-0.145l4.665-12.65v88.644h12.233V932.39
				c0-4.546-3.685-8.231-8.229-8.231h-0.136l18.87-51.176L562.591,873.128z"/>
		</g>
		<g>
			<polygon style="fill:#FFFFFF;" points="749.251,1016.744 761.485,1016.744 768.443,977.352 756.209,977.352 			"/>
			<polygon style="fill:#FFFFFF;" points="886.769,977.352 874.534,977.352 881.492,1016.744 893.726,1016.744 			"/>
			<rect x="817.589" y="974.039" style="fill:#FFFFFF;" width="12.234" height="24.485"/>
			<path style="fill:#FFFFFF;" d="M852.216,984.416l0.001,28.701h-60.984l-0.002-39.079l-12.234,0v39.078v10.094v0.083h76.189
				v-0.083h1.035c4.546,0,8.23-3.685,8.23-8.231l-0.001-30.564L852.216,984.416z"/>
			<path style="fill:#FFFFFF;" d="M881.817,953.723v-68.439v-0.188h-54.212v-12.112l-12.235,0l0.001,12.111h-54.212v76.844
				l112.444,0C878.139,961.939,881.818,958.261,881.817,953.723z M773.393,917.306h96.189l0.001,11.858h-96.189L773.393,917.306z
				 M869.582,895.272v11.858h-96.189l-0.001-11.858H869.582z M773.394,951.764V939.34h96.189l0.001,12.424H773.394z"/>
		</g>
	</g>
	<g>
		<g>
			<polygon style="fill:#FFFFFF;" points="443.364,136.312 413.952,187.312 335.633,51.623 365.046,0.706 			"/>
			<polygon style="fill:#FFFFFF;" points="394.372,221.214 364.96,272.13 286.641,136.483 316.053,85.566 			"/>
			<polygon style="fill:#FFFFFF;" points="345.38,306.074 315.967,356.99 237.649,221.341 267.061,170.426 			"/>
			<polygon style="fill:#FFFFFF;" points="443.407,475.877 413.995,526.794 335.59,390.934 364.96,340.059 			"/>
			<polygon style="fill:#FFFFFF;" points="492.399,391.019 462.987,441.934 384.582,306.115 413.952,255.201 			"/>
		</g>
		<g>
			<polygon style="fill:#FFFFFF;" points="580.636,136.312 610.048,187.312 688.367,51.623 658.954,0.706 			"/>
			<polygon style="fill:#FFFFFF;" points="629.628,221.214 659.04,272.13 737.359,136.483 707.947,85.566 			"/>
			<polygon style="fill:#FFFFFF;" points="678.62,306.074 708.033,356.99 786.351,221.341 756.939,170.426 			"/>
			<polygon style="fill:#FFFFFF;" points="580.593,475.877 610.005,526.794 688.41,390.934 659.04,340.059 			"/>
			<polygon style="fill:#FFFFFF;" points="531.601,391.019 561.013,441.934 639.418,306.115 610.048,255.201 			"/>
		</g>
		<polygon style="fill:#FFFFFF;" points="590.425,221.257 511.979,357.074 433.574,221.257 462.944,170.341 511.936,255.201 
			511.979,255.201 511.979,255.243 512.021,255.201 512.021,255.157 561.013,170.341 		"/>
	</g>
</g>
</svg>
