<?xml version="1.0" encoding="utf-8"?>
<!-- Generator: Adobe Illustrator 26.3.1, SVG Export Plug-In . SVG Version: 6.00 Build 0)  -->
<svg version="1.1" id="图层_1" xmlns="http://www.w3.org/2000/svg" xmlns:xlink="http://www.w3.org/1999/xlink" x="0px" y="0px"
	 viewBox="0 0 156 60" style="enable-background:new 0 0 156 60;" xml:space="preserve">
<style type="text/css">
	.st0{fill:none;stroke:#595757;stroke-width:0;stroke-miterlimit:10;}
	.st1{fill:#1677FF;}
</style>
<rect x="0.1" y="-0.1" class="st0" width="155.8" height="60.1"/>
<g>
	<g>
		<path class="st1" d="M65.4,15.4l3.2,8.2l3.3-8.8l3.2,8.8l3.4-8.2h2l-5.5,13.1l-3.2-8.7l-3.3,8.7l-5.2-13.1H65.4z"/>
		<path class="st1" d="M89.3,17.1h-4.9v3h4.8v1.7h-4.8v4.1h4.9v1.7h-6.8V15.4h6.8V17.1z"/>
		<path class="st1" d="M93.9,15.4v10.5h3.6v1.7h-5.5V15.4H93.9z"/>
		<path class="st1" d="M101.5,15.4v10.5h3.6v1.7h-5.5V15.4H101.5z"/>
		<path class="st1" d="M109.1,15.4v12.3h-1.9V15.4H109.1z"/>
		<path class="st1" d="M112.5,27.6V14.5l9,9.4v-8.5h1.9v13l-9-9.4v8.6H112.5z"/>
		<path class="st1" d="M132.8,17.1h-4.3v3h4.1v1.7h-4.1v5.9h-1.9V15.4h6.1V17.1z"/>
		<path class="st1" d="M134.7,21.4c0-1.7,0.6-3.2,1.9-4.5c1.3-1.2,2.8-1.9,4.6-1.9c1.8,0,3.3,0.6,4.5,1.9c1.3,1.3,1.9,2.8,1.9,4.5
			c0,1.8-0.6,3.3-1.9,4.5c-1.3,1.2-2.8,1.9-4.6,1.9c-1.6,0-3-0.5-4.3-1.6C135.4,25,134.7,23.4,134.7,21.4z M136.6,21.5
			c0,1.4,0.5,2.5,1.4,3.4c0.9,0.9,2,1.3,3.1,1.3c1.3,0,2.4-0.4,3.3-1.3c0.9-0.9,1.3-2,1.3-3.3c0-1.3-0.4-2.4-1.3-3.3
			c-0.9-0.9-1.9-1.3-3.2-1.3c-1.3,0-2.4,0.4-3.2,1.3C137,19.1,136.6,20.2,136.6,21.5z"/>
	</g>
	<g>
		<g>
			<rect x="65.9" y="36.8" class="st1" width="5" height="0.9"/>
			<path class="st1" d="M70.8,43.4L70.8,43.4l0-4.3h-3.1v-0.7h-1.1v0.7h-0.7V40h0.7v3.4l0,0l0,0v0h0L68,45l-1.8,2.1h1.5l1.1-1.2
				l1.1,1.2h1.5L69.5,45L70.8,43.4z M67.7,43l0-3h2l0,3l-1,1.2L67.7,43z"/>
			<path class="st1" d="M74.2,46.5L73.8,42h1.9c0.4,0,0.7-0.3,0.7-0.7v-3.6h-1.1l0,3.4h-1.5l-0.5-5.2h2.4c0.4,0,0.7-0.3,0.7-0.7
				v-1.3l-1.1,0l0,1.1H73l-0.1-1.1h-1.1l0.1,1.1h-7.8l0,12.4h0.4c0.4,0,0.7-0.3,0.7-0.7V35.9H72l1.1,10.6c0.1,0.5,0.5,0.9,1,0.9h2.1
				v-0.9H74.2z"/>
		</g>
		<g>
			<polygon class="st1" points="87.4,45.7 88.5,45.7 90,38.4 88.9,38.4 			"/>
			<polygon class="st1" points="97.7,38.4 99.1,45.7 100.2,45.7 98.8,38.4 			"/>
			<path class="st1" d="M94.4,35l-5,0l0.4-1.1l-1.1,0l-1.3,3.9h1.1l0.6-1.9h4.2v10.6h-2.6v0.9h2.6h0.1h0.2c0.4,0,0.7-0.3,0.7-0.7
				V35.9h4.7v1.6h1.1V35L94.4,35z"/>
		</g>
		<g>
			<rect x="115.2" y="39.6" class="st1" width="8.5" height="0.9"/>
			<rect x="115.2" y="37.3" class="st1" width="8.5" height="0.9"/>
			<polygon class="st1" points="120,35 120,33.9 118.9,33.9 118.9,35 114.8,35 114.8,35.9 124.2,35.9 124.2,35 			"/>
			<path class="st1" d="M115.2,47.4h7.8c0.4,0,0.7-0.3,0.7-0.7V42h-8.6V47.4z M122.6,46.5h-6.4v-3.5h6.4L122.6,46.5z"/>
			<path class="st1" d="M113.1,33.9l-2.5,6.7l1.2,0l0.4-1.1v8h1.1v-8.2c0-0.4-0.3-0.7-0.7-0.7h0l1.7-4.6L113.1,33.9z"/>
		</g>
		<g>
			<polygon class="st1" points="134.5,46.8 135.6,46.8 136.2,43.3 135.1,43.3 			"/>
			<polygon class="st1" points="146.9,43.3 145.8,43.3 146.4,46.8 147.5,46.8 			"/>
			<rect x="140.7" y="43" class="st1" width="1.1" height="2.2"/>
			<path class="st1" d="M143.8,43.9l0,2.6h-5.5l0-3.5l-1.1,0v3.5v0.9v0h6.9v0h0.1c0.4,0,0.7-0.3,0.7-0.7l0-2.8L143.8,43.9z"/>
			<path class="st1" d="M146.4,41.1V35v0h-4.9v-1.1l-1.1,0l0,1.1h-4.9v6.9l10.1,0C146.1,41.9,146.4,41.5,146.4,41.1z M136.7,37.9
				h8.7l0,1.1h-8.7L136.7,37.9z M145.3,35.9v1.1h-8.7l0-1.1H145.3z M136.7,41v-1.1h8.7l0,1.1H136.7z"/>
		</g>
	</g>
	<g>
		<g>
			<polygon class="st1" points="25.4,19.5 23,23.7 16.5,12.6 18.9,8.4 			"/>
			<polygon class="st1" points="21.3,26.5 18.9,30.7 12.5,19.5 14.9,15.4 			"/>
			<polygon class="st1" points="17.3,33.5 14.9,37.7 8.5,26.5 10.9,22.3 			"/>
			<polygon class="st1" points="25.4,47.4 23,51.6 16.5,40.4 18.9,36.3 			"/>
			<polygon class="st1" points="29.4,40.5 27,44.6 20.5,33.5 23,29.3 			"/>
		</g>
		<g>
			<polygon class="st1" points="36.6,19.5 39.1,23.7 45.5,12.6 43.1,8.4 			"/>
			<polygon class="st1" points="40.7,26.5 43.1,30.7 49.5,19.5 47.1,15.4 			"/>
			<polygon class="st1" points="44.7,33.5 47.1,37.7 53.5,26.5 51.1,22.3 			"/>
			<polygon class="st1" points="36.6,47.4 39.1,51.6 45.5,40.4 43.1,36.3 			"/>
			<polygon class="st1" points="32.6,40.5 35,44.6 41.5,33.5 39.1,29.3 			"/>
		</g>
		<polygon class="st1" points="37.4,26.5 31,37.7 24.6,26.5 27,22.3 31,29.3 31,29.3 31,29.3 31,29.3 31,29.3 35,22.3 		"/>
	</g>
</g>
</svg>
