<?xml version="1.0" encoding="utf-8"?>
<!-- Generator: Adobe Illustrator 26.3.1, SVG Export Plug-In . SVG Version: 6.00 Build 0)  -->
<svg version="1.1" id="图层_1" xmlns="http://www.w3.org/2000/svg" xmlns:xlink="http://www.w3.org/1999/xlink" x="0px" y="0px"
	 viewBox="0 0 120 120" style="enable-background:new 0 0 120 120;" xml:space="preserve">
<style type="text/css">
	.st0{fill:#1677FF;}
</style>
<g>
	<g>
		<path class="st0" d="M12.8,71l3.8,9.7l3.9-10.4l3.8,10.4l4-9.7h2.4l-6.5,15.4l-3.7-10.3l-3.9,10.3L10.5,71H12.8z"/>
		<path class="st0" d="M40.9,73.1h-5.8v3.5h5.6v2.1h-5.6v4.8h5.8v2.1h-8V71h8V73.1z"/>
		<path class="st0" d="M46.4,71v12.4h4.3v2.1h-6.4V71H46.4z"/>
		<path class="st0" d="M55.4,71v12.4h4.3v2.1h-6.4V71H55.4z"/>
		<path class="st0" d="M64.3,71v14.5h-2.2V71H64.3z"/>
		<path class="st0" d="M68.2,85.5V70l10.6,11V71H81v15.4l-10.6-11v10.1H68.2z"/>
		<path class="st0" d="M92.1,73.1h-5v3.5h4.9v2.1h-4.9v6.9h-2.2V71h7.2V73.1z"/>
		<path class="st0" d="M94.4,78.2c0-2,0.7-3.8,2.2-5.2c1.5-1.5,3.3-2.2,5.4-2.2c2.1,0,3.8,0.7,5.3,2.2c1.5,1.5,2.2,3.2,2.2,5.3
			c0,2.1-0.7,3.8-2.2,5.3c-1.5,1.5-3.3,2.2-5.4,2.2c-1.9,0-3.5-0.6-5-1.9C95.2,82.4,94.4,80.5,94.4,78.2z M96.6,78.2
			c0,1.6,0.5,2.9,1.6,3.9c1.1,1,2.3,1.5,3.7,1.5c1.5,0,2.8-0.5,3.8-1.6c1-1.1,1.6-2.4,1.6-3.9c0-1.5-0.5-2.8-1.5-3.9
			c-1-1.1-2.3-1.6-3.8-1.6c-1.5,0-2.8,0.5-3.8,1.6C97.1,75.4,96.6,76.7,96.6,78.2z"/>
	</g>
	<g>
		<g>
			<rect x="25" y="97.3" class="st0" width="5.3" height="1"/>
			<path class="st0" d="M30.3,104.5L30.3,104.5l0-4.6h-3.3v-0.8h-1.2v0.8H25v1h0.8v3.6l0,0l0,0v0h0l1.5,1.7l-2,2.2h1.6l1.2-1.3
				l1.2,1.3h1.6l-2-2.2L30.3,104.5z M26.9,104l0-3.2h2.2l0,3.2l-1.1,1.2L26.9,104z"/>
			<path class="st0" d="M33.9,107.8l-0.5-4.8h2c0.4,0,0.7-0.3,0.7-0.7v-3.9H35l0,3.6h-1.6l-0.6-5.6h2.6c0.4,0,0.8-0.4,0.8-0.8v-1.4
				l-1.2,0l0,1.2h-2.3l-0.1-1.2h-1.2l0.1,1.2h-8.4l0,13.3h0.4c0.4,0,0.8-0.4,0.8-0.8V96.4h7.3l1.2,11.4c0.1,0.6,0.5,1,1.1,1h2.3v-1
				H33.9z"/>
		</g>
		<g>
			<polygon class="st0" points="42.4,106.9 43.5,106.9 45.1,99.1 43.9,99.1 			"/>
			<polygon class="st0" points="53.4,99.1 54.9,106.9 56.1,106.9 54.5,99.1 			"/>
			<path class="st0" d="M49.9,95.4l-5.4,0l0.4-1.2l-1.2,0l-1.4,4.2h1.2l0.7-2h4.5v11.4h-2.8v1h2.8h0.1h0.2c0.4,0,0.8-0.4,0.8-0.8
				V96.4h5v1.8h1.2v-2.7L49.9,95.4z"/>
		</g>
		<g>
			<rect x="67.2" y="100.4" class="st0" width="9.1" height="1"/>
			<rect x="67.2" y="97.9" class="st0" width="9.1" height="1"/>
			<polygon class="st0" points="72.3,95.4 72.3,94.2 71.1,94.2 71.1,95.4 66.7,95.4 66.7,96.4 76.8,96.4 76.8,95.4 			"/>
			<path class="st0" d="M67.1,108.8h8.4c0.4,0,0.8-0.4,0.8-0.8v-5h-9.2V108.8z M75.2,107.8h-6.8V104h6.8L75.2,107.8z"/>
			<path class="st0" d="M64.9,94.2l-2.7,7.2l1.3,0l0.5-1.2v8.6h1.2V100c0-0.4-0.4-0.8-0.8-0.8h0l1.8-4.9L64.9,94.2z"/>
		</g>
		<g>
			<polygon class="st0" points="82.9,108.1 84.1,108.1 84.8,104.3 83.6,104.3 			"/>
			<polygon class="st0" points="96.2,104.3 95.1,104.3 95.7,108.1 96.9,108.1 			"/>
			<rect x="89.6" y="104" class="st0" width="1.2" height="2.4"/>
			<path class="st0" d="M92.9,105l0,2.8H87l0-3.8l-1.2,0v3.8v1v0h7.4v0h0.1c0.4,0,0.8-0.4,0.8-0.8l0-3L92.9,105z"/>
			<path class="st0" d="M95.8,102v-6.6v0h-5.2v-1.2l-1.2,0l0,1.2h-5.2v7.4l10.9,0C95.4,102.8,95.8,102.5,95.8,102z M85.3,98.5h9.3
				l0,1.1h-9.3L85.3,98.5z M94.6,96.4v1.1h-9.3l0-1.1H94.6z M85.3,101.9v-1.2h9.3l0,1.2H85.3z"/>
		</g>
	</g>
	<g>
		<g>
			<polygon class="st0" points="53.4,23 50.5,27.9 42.9,14.8 45.8,9.9 			"/>
			<polygon class="st0" points="48.6,31.2 45.8,36.1 38.2,23 41,18.1 			"/>
			<polygon class="st0" points="43.9,39.4 41,44.3 33.5,31.2 36.3,26.3 			"/>
			<polygon class="st0" points="53.4,55.8 50.5,60.7 42.9,47.6 45.8,42.7 			"/>
			<polygon class="st0" points="58.1,47.6 55.3,52.5 47.7,39.4 50.5,34.5 			"/>
		</g>
		<g>
			<polygon class="st0" points="66.6,23 69.5,27.9 77.1,14.8 74.2,9.9 			"/>
			<polygon class="st0" points="71.4,31.2 74.2,36.1 81.8,23 79,18.1 			"/>
			<polygon class="st0" points="76.1,39.4 79,44.3 86.5,31.2 83.7,26.3 			"/>
			<polygon class="st0" points="66.6,55.8 69.5,60.7 77.1,47.6 74.2,42.7 			"/>
			<polygon class="st0" points="61.9,47.6 64.7,52.5 72.3,39.4 69.5,34.5 			"/>
		</g>
		<polygon class="st0" points="67.6,31.2 60,44.3 52.4,31.2 55.3,26.3 60,34.5 60,34.5 60,34.5 60,34.5 60,34.5 64.7,26.3 		"/>
	</g>
</g>
</svg>
