<?xml version="1.0" encoding="utf-8"?>
<!-- Generator: Adobe Illustrator 26.3.1, SVG Export Plug-In . SVG Version: 6.00 Build 0)  -->
<svg version="1.1" id="图层_1" xmlns="http://www.w3.org/2000/svg" xmlns:xlink="http://www.w3.org/1999/xlink" x="0px" y="0px"
	 viewBox="0 0 1024 1024" style="enable-background:new 0 0 1024 1024;" xml:space="preserve">
<path style="fill:#FFE9B4;" d="M960,346.672H406.674V192H912c26.51,0,48,21.49,48,48V346.672z"/>
<path style="fill:#FFA000;" d="M512,320H64V176c0-26.51,21.49-48,48-48h301.404c20.661,0,39.003,13.221,45.537,32.821L512,320z"/>
<path style="fill:#FFCA28;" d="M112,256h800c26.51,0,48,21.49,48,48v544c0,26.51-21.49,48-48,48H112c-26.51,0-48-21.49-48-48V304
	C64,277.49,85.49,256,112,256z"/>
</svg>
