<?xml version="1.0" encoding="utf-8"?>
<!-- Generator: Adobe Illustrator 26.3.1, SVG Export Plug-In . SVG Version: 6.00 Build 0)  -->
<svg version="1.1" id="图层_1" xmlns="http://www.w3.org/2000/svg" xmlns:xlink="http://www.w3.org/1999/xlink" x="0px" y="0px"
	 viewBox="0 0 1024 1024" style="enable-background:new 0 0 1024 1024;" xml:space="preserve">
<path style="fill:#4386FF;" d="M848,960H176c-26.51,0-48-21.49-48-48V112c0-26.51,21.49-48,48-48h463.625L896,319.996V912
	C896,938.51,874.51,960,848,960z"/>
<path style="fill:#A1C2FF;enable-background:new    ;" d="M896,320H688c-26.51,0-48-21.49-48-48V64L896,320z"/>
<path style="fill-rule:evenodd;clip-rule:evenodd;fill:#FFFFFF;" d="M530,368H304c-26.51,0-48-21.49-48-48l0,0
	c0-26.51,21.49-48,48-48h226c26.51,0,48,21.49,48,48l0,0C578,346.51,556.51,368,530,368z"/>
<path style="fill-rule:evenodd;clip-rule:evenodd;fill:#FFFFFF;" d="M720,560H304c-26.51,0-48-21.49-48-48l0,0
	c0-26.51,21.49-48,48-48h416c26.51,0,48,21.49,48,48l0,0C768,538.51,746.51,560,720,560z"/>
<path style="fill-rule:evenodd;clip-rule:evenodd;fill:#FFFFFF;" d="M720,752H304c-26.51,0-48-21.49-48-48l0,0
	c0-26.51,21.49-48,48-48h416c26.51,0,48,21.49,48,48l0,0C768,730.51,746.51,752,720,752z"/>
</svg>
