<?xml version="1.0" encoding="utf-8"?>
<!-- Generator: Adobe Illustrator 26.3.1, SVG Export Plug-In . SVG Version: 6.00 Build 0)  -->
<svg version="1.1" id="图层_1" xmlns="http://www.w3.org/2000/svg" xmlns:xlink="http://www.w3.org/1999/xlink" x="0px" y="0px"
	 viewBox="0 0 1024 1024" style="enable-background:new 0 0 1024 1024;" xml:space="preserve">
<path style="fill:#34B272;" d="M848,960H176c-26.51,0-48-21.49-48-48V112c0-26.51,21.49-48,48-48h463.625L896,319.996V912
	C896,938.51,874.51,960,848,960z"/>
<path style="fill:#9AD9B9;enable-background:new    ;" d="M896,320H688c-26.51,0-48-21.49-48-48V64L896,320z"/>
<g style="enable-background:new    ;">
	<path style="fill:#FFFFFF;" d="M360.018,689.717l-47.195-84.814l-46.854,84.814h-54.377l75.581-124.828L216.38,446.216h54.035
		l42.407,78.659l42.749-78.659h53.693l-70.793,118.673l75.923,124.828H360.018z"/>
	<path style="fill:#FFFFFF;" d="M444.492,689.717V446.216h47.537V647.31h110.465v42.407H444.492z"/>
	<path style="fill:#FFFFFF;" d="M708.172,691.769c-36.936,0-64.979-7.865-88.918-32.147l30.779-30.779
		c15.39,15.39,36.251,20.52,58.823,20.52c28.043,0,43.091-10.602,43.091-30.096c0-8.55-2.394-15.731-7.523-20.52
		c-4.788-4.446-10.26-6.84-21.546-8.55l-29.411-4.104c-20.862-3.077-36.252-9.575-47.195-20.178
		c-11.628-11.627-17.442-27.359-17.442-47.879c0-43.434,32.147-73.871,84.815-73.871c33.516,0,57.797,8.208,78.658,28.386
		l-30.095,29.754c-15.391-14.706-33.858-16.758-49.932-16.758c-25.308,0-37.619,14.021-37.619,30.779
		c0,6.156,2.052,12.654,7.182,17.441c4.788,4.446,12.653,8.208,22.571,9.576l28.728,4.104c22.229,3.077,36.252,9.233,46.512,18.81
		c12.996,12.312,18.81,30.096,18.81,51.641C798.459,665.093,759.13,691.769,708.172,691.769z"/>
</g>
</svg>
