<?xml version="1.0" encoding="utf-8"?>
<!-- Generator: Adobe Illustrator 26.3.1, SVG Export Plug-In . SVG Version: 6.00 Build 0)  -->
<svg version="1.1" id="图层_1" xmlns="http://www.w3.org/2000/svg" xmlns:xlink="http://www.w3.org/1999/xlink" x="0px" y="0px"
	 viewBox="0 0 1024 1024" style="enable-background:new 0 0 1024 1024;" xml:space="preserve">
<path style="fill:#E34221;" d="M848,960H176c-26.51,0-48-21.49-48-48V112c0-26.51,21.49-48,48-48h463.625L896,319.996V912
	C896,938.51,874.51,960,848,960z"/>
<path style="fill:#F1A090;enable-background:new    ;" d="M896,320H688c-26.51,0-48-21.49-48-48V64L896,320z"/>
<g style="enable-background:new    ;">
	<path style="fill:#FFFFFF;" d="M322.74,598.062h-46.854v91.654H228.35v-243.5h94.391c50.273,0,80.369,34.542,80.369,75.923
		C403.109,563.521,373.014,598.062,322.74,598.062z M320.347,488.624h-44.46v66.688h44.46c21.546,0,35.226-13.338,35.226-33.174
		C355.572,502.304,341.893,488.624,320.347,488.624z"/>
	<path style="fill:#FFFFFF;" d="M537.514,598.062H490.66v91.654h-47.537v-243.5h94.391c50.273,0,80.368,34.542,80.368,75.923
		C617.882,563.521,587.787,598.062,537.514,598.062z M535.119,488.624H490.66v66.688h44.459c21.546,0,35.226-13.338,35.226-33.174
		C570.345,502.304,556.665,488.624,535.119,488.624z"/>
	<path style="fill:#FFFFFF;" d="M750.918,488.624v201.093h-47.537V488.624H639.77v-42.408h174.76v42.408H750.918z"/>
</g>
</svg>
