<?xml version="1.0" encoding="utf-8"?>
<!-- Generator: Adobe Illustrator 26.3.1, SVG Export Plug-In . SVG Version: 6.00 Build 0)  -->
<svg version="1.1" id="图层_1" xmlns="http://www.w3.org/2000/svg" xmlns:xlink="http://www.w3.org/1999/xlink" x="0px" y="0px"
	 viewBox="0 0 1024 1024" style="enable-background:new 0 0 1024 1024;" xml:space="preserve">
<path style="fill:#0690DF;" d="M848,960H176c-26.51,0-48-21.49-48-48V112c0-26.51,21.49-48,48-48h463.625L896,319.996V912
	C896,938.51,874.51,960,848,960z"/>
<path style="fill:#82C7EF;enable-background:new    ;" d="M896,320H688c-26.51,0-48-21.49-48-48V64L896,320z"/>
<g>
	<path style="fill:#FFFFFF;" d="M448,608.001H288v-128h160c17.673,0,32-14.327,32-32l0,0c0-17.673-14.327-32-32-32H272
		c-26.51,0-48,21.49-48,48v160c0,26.51,21.49,48,48,48h176c17.673,0,32-14.327,32-32l0,0C480,622.328,465.673,608.001,448,608.001z"
		/>
	<path style="fill:#FFFFFF;" d="M752,416.001H576c-17.673,0-32,14.327-32,32l0,0c0,17.673,14.327,32,32,32h160v128H576
		c-17.673,0-32,14.327-32,32l0,0c0,17.673,14.327,32,32,32h176c26.51,0,48-21.49,48-48v-160C800,437.491,778.51,416.001,752,416.001
		z"/>
</g>
<path style="fill:#FFFFFF;" d="M608,576.001H416c-17.673,0-32-14.327-32-32l0,0c0-17.673,14.327-32,32-32h192
	c17.673,0,32,14.327,32,32l0,0C640,561.674,625.673,576.001,608,576.001z"/>
</svg>
