<?xml version="1.0" encoding="utf-8"?>
<!-- Generator: Adobe Illustrator 26.3.1, SVG Export Plug-In . SVG Version: 6.00 Build 0)  -->
<svg version="1.1" id="图层_1" xmlns="http://www.w3.org/2000/svg" xmlns:xlink="http://www.w3.org/1999/xlink" x="0px" y="0px"
	 viewBox="0 0 1024 1024" style="enable-background:new 0 0 1024 1024;" xml:space="preserve">
<path style="fill:#FC5A5A;" d="M848,960H176c-26.51,0-48-21.49-48-48V112c0-26.51,21.49-48,48-48h463.625L896,319.996V912
	C896,938.51,874.51,960,848,960z"/>
<path style="fill:#FEADAD;enable-background:new    ;" d="M896,320H688c-26.51,0-48-21.49-48-48V64L896,320z"/>
<g style="enable-background:new    ;">
	<path style="fill:#FFFFFF;" d="M314.19,598.062h-46.854v91.654h-47.537v-243.5h94.391c50.273,0,80.369,34.542,80.369,75.923
		C394.559,563.521,364.463,598.062,314.19,598.062z M311.796,488.624h-44.459v66.688h44.459c21.546,0,35.226-13.338,35.226-33.174
		C347.021,502.304,333.342,488.624,311.796,488.624z"/>
	<path style="fill:#FFFFFF;" d="M586.76,666.461c-16.074,16.074-38.987,23.256-64.295,23.256h-87.893V446.216h87.893
		c25.308,0,48.221,7.183,64.295,23.256c27.359,27.359,24.624,60.875,24.624,97.469S614.119,639.102,586.76,666.461z
		 M553.586,503.672c-8.208-9.918-19.151-15.048-35.567-15.048H482.11V647.31h35.909c16.416,0,27.359-5.13,35.567-15.048
		c8.893-10.944,10.26-28.386,10.26-65.321S562.479,514.615,553.586,503.672z"/>
	<path style="fill:#FFFFFF;" d="M707.485,488.624v59.849h96.101v42.407h-96.101v98.837h-47.537V446.216h160.396v42.408H707.485z"/>
</g>
</svg>
