<?xml version="1.0" encoding="utf-8"?>
<!-- Generator: Adobe Illustrator 16.0.0, SVG Export Plug-In . SVG Version: 6.00 Build 0)  -->
<!DOCTYPE svg PUBLIC "-//W3C//DTD SVG 1.1//EN" "http://www.w3.org/Graphics/SVG/1.1/DTD/svg11.dtd">
<svg version="1.1" id="图层_1" xmlns="http://www.w3.org/2000/svg" x="0px"
     y="0px"
     width="24px" height="24px" viewBox="0 0 24 24" enable-background="new 0 0 24 24" xml:space="preserve">
<path fill="#0078D7" enable-background="new    " d="M21.918,5.707c-0.143-1.689-1.618-2.254-2.439-2.319L4.171,3.389
	C4.044,3.396,3.378,3.461,2.709,4.086c-0.758,0.702-0.69,1.685-0.684,1.725v12.656c0,1.52,1.379,2.064,2.108,2.143
	c0.026,0.002,0.052,0.005,0.079,0.005c0.001,0,0.002,0,0.003,0c0,0,13.698-0.064,15.18-0.064c1.645,0,2.357-1.223,2.506-1.868
	c0.015-0.054,0.021-0.104,0.021-0.158C21.926,18.059,22.047,7.225,21.918,5.707z M20.422,18.396
	c-0.074,0.213-0.316,0.649-1.027,0.649c-1.43,0-14.237,0.062-15.137,0.063c-0.148-0.021-0.732-0.145-0.732-0.646L3.522,5.741
	c0-0.003-0.013-0.351,0.209-0.557C4.002,4.93,4.245,4.889,4.217,4.887l15.2-0.002c0.038,0.003,0.935,0.086,1.007,0.948
	C20.521,6.98,20.466,14.49,20.422,18.396z M14.729,9.226h4.658v5.547h-4.658v-1.047h3.455v-1.203h-2.932v-1.046h2.932v-1.152h-3.455
	V9.226z M4.521,9.226h2.043v5.547H5.358v-4.5H4.521V9.226z M8.709,9.226h4.605v3.297H9.86v1.203h3.455v1.047H8.971H8.656v-3.351
	h3.456v-1.15H8.709V9.226z"/>
</svg>
