<?xml version="1.0" encoding="utf-8"?>
<!-- Generator: Adobe Illustrator 16.0.0, SVG Export Plug-In . SVG Version: 6.00 Build 0)  -->
<!DOCTYPE svg PUBLIC "-//W3C//DTD SVG 1.1//EN" "http://www.w3.org/Graphics/SVG/1.1/DTD/svg11.dtd">
<svg version="1.1" id="图层_1" xmlns="http://www.w3.org/2000/svg" x="0px"
     y="0px"
     width="24px" height="24px" viewBox="0 0 24 24" enable-background="new 0 0 24 24" xml:space="preserve">
<path opacity="0.42" enable-background="new    " d="M22.045,12.971c-0.146,0.147-0.339,0.222-0.531,0.222
	c-0.189,0-0.383-0.072-0.528-0.22l-1.184-1.177c-0.638,0.681-1.4,1.27-2.255,1.747l0.808,1.611c0.186,0.369,0.034,0.819-0.336,1.006
	c-0.107,0.054-0.224,0.079-0.334,0.079c-0.275,0-0.541-0.151-0.673-0.415l-0.821-1.646c-1.032,0.396-2.156,0.64-3.332,0.701v1.564
	c0,0.414-0.334,0.75-0.75,0.75l0,0c-0.414,0-0.75-0.336-0.75-0.75v-1.577c-1.409-0.111-2.73-0.487-3.902-1.063L6.577,15.32
	c-0.139,0.239-0.391,0.375-0.649,0.375c-0.128,0-0.257-0.032-0.376-0.104c-0.357-0.208-0.479-0.667-0.271-1.023l0.885-1.523
	c-0.754-0.525-1.418-1.143-1.956-1.841l-1.214,1.112c-0.145,0.132-0.326,0.197-0.507,0.197c-0.203,0-0.405-0.083-0.554-0.244
	c-0.279-0.306-0.259-0.779,0.047-1.06l1.418-1.299c-0.351-0.705-0.59-1.46-0.697-2.255c-0.057-0.41,0.232-0.788,0.642-0.844
	c0.407-0.061,0.788,0.232,0.843,0.645c0.455,3.391,3.928,5.947,8.076,5.947c4.06,0,7.522-2.495,8.056-5.805
	c0.064-0.408,0.463-0.688,0.857-0.621c0.409,0.065,0.688,0.451,0.621,0.859c-0.159,0.992-0.53,1.923-1.067,2.766l1.313,1.306
	C22.336,12.202,22.338,12.677,22.045,12.971z"/>
</svg>
