<?xml version="1.0" encoding="utf-8"?>
<!-- Generator: Adobe Illustrator 16.0.0, SVG Export Plug-In . SVG Version: 6.00 Build 0)  -->
<!DOCTYPE svg PUBLIC "-//W3C//DTD SVG 1.1//EN" "http://www.w3.org/Graphics/SVG/1.1/DTD/svg11.dtd">
<svg version="1.1" id="图层_1" xmlns="http://www.w3.org/2000/svg" x="0px"
     y="0px"
     width="24px" height="24px" viewBox="0 0 24 24" enable-background="new 0 0 24 24" xml:space="preserve">
<path opacity="0.42" enable-background="new    " d="M11.967,19.234c-6.91,0-9.816-6.452-9.936-6.729
	c-0.073-0.167-0.083-0.354-0.028-0.528c0.023-0.072,2.379-7.214,9.964-7.214c7.449,0,9.998,7.12,10.023,7.192
	c0.061,0.176,0.053,0.368-0.02,0.54C21.854,12.773,19.008,19.234,11.967,19.234z M3.532,12.167c0.586,1.151,3.178,5.567,8.436,5.567
	c5.357,0,7.917-4.404,8.498-5.563c-0.506-1.213-2.834-5.908-8.498-5.908C6.252,6.265,4.005,10.986,3.532,12.167z M12,9.253
	c-1.657,0-3,1.343-3,3c0,1.657,1.343,2.999,3,2.999s3-1.342,3-2.999C15,10.596,13.656,9.253,12,9.253z"/>
</svg>
