<?xml version="1.0" encoding="utf-8"?>
<!-- Generator: Adobe Illustrator 26.3.1, SVG Export Plug-In . SVG Version: 6.00 Build 0)  -->
<svg version="1.1" id="图层_1" xmlns="http://www.w3.org/2000/svg" xmlns:xlink="http://www.w3.org/1999/xlink" x="0px" y="0px"
	 viewBox="0 0 1024 1024" style="enable-background:new 0 0 1024 1024;" xml:space="preserve">
<path style="fill:#FFA000;" d="M960,487.124H406.674V192H912c26.51,0,48,21.49,48,48V487.124z"/>
<path style="fill:#FFA000;" d="M512,320H64V176c0-26.51,21.49-48,48-48h301.404c20.661,0,39.003,13.221,45.537,32.821L512,320z"/>
<rect x="64" y="284.58" style="fill:#FFA000;" width="565.43" height="188.917"/>
<path style="fill:#FFFFFF;" d="M896,448H128V304c0-26.51,21.49-48,48-48h672c26.51,0,48,21.49,48,48V448z"/>
<path style="fill:#FFCA28;" d="M112,384h800c26.51,0,48,21.49,48,48v416c0,26.51-21.49,48-48,48H112c-26.51,0-48-21.49-48-48V432
	C64,405.49,85.49,384,112,384z"/>
<path style="fill:#FFFFFF;" d="M416,544H192c-17.673,0-32-14.327-32-32v0c0-17.673,14.327-32,32-32h224c17.673,0,32,14.327,32,32v0
	C448,529.673,433.673,544,416,544z"/>
<path style="fill:#FFFFFF;" d="M416,672H192c-17.673,0-32-14.327-32-32v0c0-17.673,14.327-32,32-32h224c17.673,0,32,14.327,32,32v0
	C448,657.673,433.673,672,416,672z"/>
</svg>
