<?xml version="1.0" encoding="utf-8"?>
<!-- Generator: Adobe Illustrator 26.3.1, SVG Export Plug-In . SVG Version: 6.00 Build 0)  -->
<svg version="1.1" id="图层_1" xmlns="http://www.w3.org/2000/svg" xmlns:xlink="http://www.w3.org/1999/xlink" x="0px" y="0px"
	 viewBox="0 0 1024 1024" style="enable-background:new 0 0 1024 1024;" xml:space="preserve">
<path style="fill:#387FFA;" d="M848,960H176c-26.51,0-48-21.49-48-48V112c0-26.51,21.49-48,48-48h463.625L896,319.996V912
	C896,938.51,874.51,960,848,960z"/>
<path style="fill:#9CBFFD;enable-background:new    ;" d="M896,320H688c-26.51,0-48-21.49-48-48V64L896,320z"/>
<g style="enable-background:new    ;">
	<path style="fill:#FFFFFF;" d="M364.12,666.461c-16.074,16.074-38.987,23.256-64.295,23.256h-87.893V446.216h87.893
		c25.308,0,48.221,7.183,64.295,23.256c27.36,27.359,24.624,60.875,24.624,97.469S391.48,639.102,364.12,666.461z M330.947,503.672
		c-8.208-9.918-19.152-15.048-35.567-15.048h-35.91V647.31h35.91c16.416,0,27.359-5.13,35.567-15.048
		c8.892-10.944,10.26-28.386,10.26-65.321S339.839,514.615,330.947,503.672z"/>
	<path style="fill:#FFFFFF;" d="M584.709,665.093c-17.1,17.101-37.961,26.676-65.663,26.676c-27.701,0-48.905-9.575-66.005-26.676
		c-24.624-24.623-23.939-55.061-23.939-97.126s-0.684-72.503,23.939-97.127c17.1-17.1,38.304-26.676,66.005-26.676
		c27.702,0,48.563,9.576,65.663,26.676c24.624,24.624,24.282,55.062,24.282,97.127S609.333,640.47,584.709,665.093z
		 M549.483,499.567c-6.84-7.866-17.441-12.996-30.438-12.996c-12.996,0-23.939,5.13-30.779,12.996
		c-9.234,10.26-11.628,21.546-11.628,68.399s2.394,58.139,11.628,68.398c6.84,7.866,17.784,12.996,30.779,12.996
		c12.996,0,23.598-5.13,30.438-12.996c9.234-10.26,11.97-21.545,11.97-68.398S558.718,509.827,549.483,499.567z"/>
	<path style="fill:#FFFFFF;" d="M738.951,691.769c-26.676,0-48.563-9.575-65.663-26.676c-24.624-24.623-23.939-55.061-23.939-97.126
		s-0.685-72.503,23.939-97.127c17.1-17.1,38.987-26.676,65.663-26.676c45.485,0,81.053,25.992,89.603,76.949h-48.221
		c-4.788-19.494-17.101-34.542-41.04-34.542c-12.996,0-23.598,4.788-30.438,12.654c-9.233,10.26-11.97,21.888-11.97,68.741
		s2.736,58.48,11.97,68.741c6.84,7.865,17.441,12.653,30.438,12.653c23.939,0,36.252-15.048,41.04-34.541h48.221
		C820.004,665.777,784.095,691.769,738.951,691.769z"/>
</g>
</svg>
