<?xml version="1.0" encoding="utf-8"?>
<!-- Generator: Adobe Illustrator 16.0.0, SVG Export Plug-In . SVG Version: 6.00 Build 0)  -->
<!DOCTYPE svg PUBLIC "-//W3C//DTD SVG 1.1//EN" "http://www.w3.org/Graphics/SVG/1.1/DTD/svg11.dtd">
<svg version="1.1" id="图层_1" xmlns="http://www.w3.org/2000/svg" xmlns:xlink="http://www.w3.org/1999/xlink" x="0px" y="0px"
	 width="24px" height="24px" viewBox="0 0 24 24" enable-background="new 0 0 24 24" xml:space="preserve">
<g opacity="0.54">
	<path fill="none" d="M19.203,4.852L4.444,4.854c0.027,0.002-0.201,0.043-0.46,0.283C3.781,5.327,3.789,5.658,3.79,5.661l0.003,9.36
		c0,0.526,0.694,0.604,0.724,0.608l3.146-0.004c0.373,0,0.688,0.272,0.742,0.642l0.327,2.237l3.541-2.78
		c0.132-0.104,0.295-0.16,0.463-0.16h6.449c0.672,0,0.901-0.412,0.977-0.614c0.014-0.938,0.111-7.883,0.001-9.198
		C20.092,4.934,19.238,4.855,19.203,4.852z M6.909,11.919c-0.68,0-1.231-0.561-1.231-1.25c0-0.69,0.552-1.25,1.231-1.25
		c0.681,0,1.232,0.56,1.232,1.25S7.589,11.919,6.909,11.919z M12.026,11.919c-0.681,0-1.231-0.561-1.231-1.25
		c0-0.69,0.551-1.25,1.231-1.25c0.682,0,1.232,0.56,1.232,1.25S12.708,11.919,12.026,11.919z M16.932,11.919
		c-0.682,0-1.23-0.561-1.23-1.25c0-0.69,0.551-1.25,1.23-1.25s1.231,0.56,1.231,1.25S17.611,11.919,16.932,11.919z"/>
	<path d="M21.654,5.625c-0.139-1.654-1.584-2.207-2.391-2.271L4.396,3.355C4.272,3.363,3.62,3.428,2.963,4.04
		c-0.742,0.688-0.677,1.65-0.67,1.689v9.292c0,1.488,1.352,2.023,2.146,2.104h2.575l0.42,2.877c0.039,0.268,0.215,0.49,0.464,0.588
		c0.09,0.037,0.185,0.057,0.278,0.057c0.166,0,0.329-0.057,0.463-0.16l4.355-3.422h6.189c1.607,0,2.31-1.199,2.455-1.832
		c0.012-0.053,0.019-0.104,0.02-0.156C21.663,14.75,21.779,7.102,21.654,5.625z M20.16,14.949c-0.073,0.203-0.305,0.615-0.977,0.615
		h-6.449c-0.168,0-0.333,0.057-0.463,0.16L8.73,18.506l-0.327-2.238c-0.054-0.367-0.37-0.641-0.742-0.641l-3.146,0.004
		c-0.029-0.004-0.724-0.082-0.724-0.609L3.79,5.661c0-0.003-0.009-0.334,0.194-0.523c0.259-0.24,0.487-0.281,0.46-0.283
		l14.759-0.002c0.035,0.003,0.889,0.082,0.958,0.899C20.271,7.066,20.174,14.012,20.16,14.949z"/>
	<ellipse cx="6.909" cy="10.669" rx="1.231" ry="1.25"/>
	<ellipse cx="12.026" cy="10.669" rx="1.231" ry="1.25"/>
	<ellipse cx="16.932" cy="10.669" rx="1.23" ry="1.25"/>
</g>
</svg>
