<?xml version="1.0" encoding="utf-8"?>
<!-- Generator: Adobe Illustrator 16.0.0, SVG Export Plug-In . SVG Version: 6.00 Build 0)  -->
<!DOCTYPE svg PUBLIC "-//W3C//DTD SVG 1.1//EN" "http://www.w3.org/Graphics/SVG/1.1/DTD/svg11.dtd">
<svg version="1.1" id="图层_1" xmlns="http://www.w3.org/2000/svg" xmlns:xlink="http://www.w3.org/1999/xlink" x="0px" y="0px"
	 width="24px" height="24px" viewBox="0 0 24 24" enable-background="new 0 0 24 24" xml:space="preserve">
<path fill="#0078D7" enable-background="new    " d="M19.254,21.855H4.739c-0.391,0-0.717-0.301-0.748-0.689
	c-0.01-0.125-0.224-3.084,1.404-5.67c0.848-1.346,2.044-2.189,3.028-2.698c-1.586-1.055-2.595-2.856-2.595-4.842
	c0-3.205,2.607-5.812,5.812-5.812c3.206,0,5.813,2.607,5.813,5.812c0,1.883-0.941,3.715-2.383,4.851
	c1.184,0.545,2.738,1.529,3.664,3.187c1.521,2.728,1.277,5.098,1.266,5.196C19.957,21.57,19.637,21.855,19.254,21.855z
	 M5.487,20.355H18.51c-0.043-0.777-0.252-2.145-1.084-3.631c-1.285-2.301-4.279-3.029-4.309-3.037
	c-0.323-0.076-0.559-0.355-0.577-0.688c-0.019-0.331,0.181-0.635,0.493-0.748c1.664-0.601,2.92-2.448,2.92-4.295
	c0-2.377-1.936-4.312-4.313-4.312c-2.377,0-4.312,1.934-4.312,4.312c0,1.956,1.319,3.67,3.208,4.169
	c0.334,0.088,0.564,0.393,0.559,0.738c-0.006,0.345-0.246,0.642-0.583,0.718c-0.023,0.006-2.526,0.612-3.848,2.713
	C5.737,17.77,5.527,19.439,5.487,20.355z"/>
</svg>
