<?xml version="1.0" encoding="utf-8"?>
<!-- Generator: Adobe Illustrator 16.0.0, SVG Export Plug-In . SVG Version: 6.00 Build 0)  -->
<!DOCTYPE svg PUBLIC "-//W3C//DTD SVG 1.1//EN" "http://www.w3.org/Graphics/SVG/1.1/DTD/svg11.dtd">
<svg version="1.1" id="图层_1" xmlns="http://www.w3.org/2000/svg" xmlns:xlink="http://www.w3.org/1999/xlink" x="0px" y="0px"
	 width="24px" height="24px" viewBox="0 0 24 24" enable-background="new 0 0 24 24" xml:space="preserve">
<path opacity="0.54" d="M18.578,10.828h-1.416V7.437c0-0.044-0.018-0.083-0.025-0.125c0.008-0.042,0.025-0.081,0.025-0.125
	c0-2.796-2.275-5.071-5.072-5.071S7.019,4.39,7.019,7.187v3.641H5.422c-0.414,0-0.75,0.336-0.75,0.75v9.558
	c0,0.414,0.336,0.75,0.75,0.75h13.156c0.414,0,0.75-0.336,0.75-0.75v-9.558C19.328,11.164,18.992,10.828,18.578,10.828z
	 M8.519,7.187c0-1.969,1.602-3.571,3.571-3.571s3.572,1.602,3.572,3.571c0,0.044,0.018,0.083,0.025,0.125
	c-0.008,0.042-0.025,0.081-0.025,0.125v3.391H8.519V7.187z M17.828,20.386H6.172v-8.058h11.656V20.386z M9.913,16.357
	c0-0.553,0.448-1,1-1h2.171c0.553,0,1,0.447,1,1s-0.447,1-1,1h-2.171C10.361,17.357,9.913,16.91,9.913,16.357z"/>
</svg>
